<svg id="visual" viewBox="0 0 900 200" width="900" height="200" xmlns="http://www.w3.org/2000/svg" xmlns:xlink="http://www.w3.org/1999/xlink" version="1.1"><rect x="0" y="0" width="900" height="200" fill="#0FA2FF"></rect><path d="M0 125L16.7 118.2C33.3 111.3 66.7 97.7 100 99.5C133.3 101.3 166.7 118.7 200 121.2C233.3 123.7 266.7 111.3 300 112C333.3 112.7 366.7 126.3 400 127.5C433.3 128.7 466.7 117.3 500 113C533.3 108.7 566.7 111.3 600 103.2C633.3 95 666.7 76 700 75.5C733.3 75 766.7 93 800 102.5C833.3 112 866.7 113 883.3 113.5L900 114L900 201L883.3 201C866.7 201 833.3 201 800 201C766.7 201 733.3 201 700 201C666.7 201 633.3 201 600 201C566.7 201 533.3 201 500 201C466.7 201 433.3 201 400 201C366.7 201 333.3 201 300 201C266.7 201 233.3 201 200 201C166.7 201 133.3 201 100 201C66.7 201 33.3 201 16.7 201L0 201Z" fill="#001fd2"></path><path d="M0 110L16.7 111.5C33.3 113 66.7 116 100 124.8C133.3 133.7 166.7 148.3 200 144.3C233.3 140.3 266.7 117.7 300 116.8C333.3 116 366.7 137 400 148.5C433.3 160 466.7 162 500 163.3C533.3 164.7 566.7 165.3 600 160.3C633.3 155.3 666.7 144.7 700 130C733.3 115.3 766.7 96.7 800 91.5C833.3 86.3 866.7 94.7 883.3 98.8L900 103L900 201L883.3 201C866.7 201 833.3 201 800 201C766.7 201 733.3 201 700 201C666.7 201 633.3 201 600 201C566.7 201 533.3 201 500 201C466.7 201 433.3 201 400 201C366.7 201 333.3 201 300 201C266.7 201 233.3 201 200 201C166.7 201 133.3 201 100 201C66.7 201 33.3 201 16.7 201L0 201Z" fill="#002195"></path><path d="M0 142L16.7 147.2C33.3 152.3 66.7 162.7 100 157C133.3 151.3 166.7 129.7 200 118.2C233.3 106.7 266.7 105.3 300 106.7C333.3 108 366.7 112 400 115.3C433.3 118.7 466.7 121.3 500 124.5C533.3 127.7 566.7 131.3 600 133C633.3 134.7 666.7 134.3 700 134.7C733.3 135 766.7 136 800 138.3C833.3 140.7 866.7 144.3 883.3 146.2L900 148L900 201L883.3 201C866.7 201 833.3 201 800 201C766.7 201 733.3 201 700 201C666.7 201 633.3 201 600 201C566.7 201 533.3 201 500 201C466.7 201 433.3 201 400 201C366.7 201 333.3 201 300 201C266.7 201 233.3 201 200 201C166.7 201 133.3 201 100 201C66.7 201 33.3 201 16.7 201L0 201Z" fill="#001959"></path><path d="M0 167L16.7 164.7C33.3 162.3 66.7 157.7 100 158C133.3 158.3 166.7 163.7 200 162.7C233.3 161.7 266.7 154.3 300 150.7C333.3 147 366.7 147 400 151.3C433.3 155.7 466.7 164.3 500 166C533.3 167.7 566.7 162.3 600 160.5C633.3 158.7 666.7 160.3 700 157.3C733.3 154.3 766.7 146.7 800 142.3C833.3 138 866.7 137 883.3 136.5L900 136L900 201L883.3 201C866.7 201 833.3 201 800 201C766.7 201 733.3 201 700 201C666.7 201 633.3 201 600 201C566.7 201 533.3 201 500 201C466.7 201 433.3 201 400 201C366.7 201 333.3 201 300 201C266.7 201 233.3 201 200 201C166.7 201 133.3 201 100 201C66.7 201 33.3 201 16.7 201L0 201Z" fill="#00041e"></path></svg>