<svg id="visual" viewBox="0 0 900 200" width="900" height="200" xmlns="http://www.w3.org/2000/svg" xmlns:xlink="http://www.w3.org/1999/xlink" version="1.1"><rect x="0" y="0" width="900" height="200" fill="#00041e"></rect><path d="M0 69L21.5 74.7C43 80.3 86 91.7 128.8 90C171.7 88.3 214.3 73.7 257.2 70C300 66.3 343 73.7 385.8 81.5C428.7 89.3 471.3 97.7 514.2 101.5C557 105.3 600 104.7 642.8 104.2C685.7 103.7 728.3 103.3 771.2 101C814 98.7 857 94.3 878.5 92.2L900 90L900 201L878.5 201C857 201 814 201 771.2 201C728.3 201 685.7 201 642.8 201C600 201 557 201 514.2 201C471.3 201 428.7 201 385.8 201C343 201 300 201 257.2 201C214.3 201 171.7 201 128.8 201C86 201 43 201 21.5 201L0 201Z" fill="#001fd2"></path><path d="M0 122L21.5 121C43 120 86 118 128.8 118.5C171.7 119 214.3 122 257.2 117.7C300 113.3 343 101.7 385.8 100.3C428.7 99 471.3 108 514.2 110.7C557 113.3 600 109.7 642.8 111.3C685.7 113 728.3 120 771.2 119.2C814 118.3 857 109.7 878.5 105.3L900 101L900 201L878.5 201C857 201 814 201 771.2 201C728.3 201 685.7 201 642.8 201C600 201 557 201 514.2 201C471.3 201 428.7 201 385.8 201C343 201 300 201 257.2 201C214.3 201 171.7 201 128.8 201C86 201 43 201 21.5 201L0 201Z" fill="#0054ea"></path><path d="M0 147L21.5 141.7C43 136.3 86 125.7 128.8 126C171.7 126.3 214.3 137.7 257.2 139.5C300 141.3 343 133.7 385.8 129.5C428.7 125.3 471.3 124.7 514.2 123.2C557 121.7 600 119.3 642.8 124.8C685.7 130.3 728.3 143.7 771.2 147.8C814 152 857 147 878.5 144.5L900 142L900 201L878.5 201C857 201 814 201 771.2 201C728.3 201 685.7 201 642.8 201C600 201 557 201 514.2 201C471.3 201 428.7 201 385.8 201C343 201 300 201 257.2 201C214.3 201 171.7 201 128.8 201C86 201 43 201 21.5 201L0 201Z" fill="#007efa"></path><path d="M0 169L21.5 170.7C43 172.3 86 175.7 128.8 174.2C171.7 172.7 214.3 166.3 257.2 162.3C300 158.3 343 156.7 385.8 159C428.7 161.3 471.3 167.7 514.2 169.8C557 172 600 170 642.8 166.8C685.7 163.7 728.3 159.3 771.2 156.2C814 153 857 151 878.5 150L900 149L900 201L878.5 201C857 201 814 201 771.2 201C728.3 201 685.7 201 642.8 201C600 201 557 201 514.2 201C471.3 201 428.7 201 385.8 201C343 201 300 201 257.2 201C214.3 201 171.7 201 128.8 201C86 201 43 201 21.5 201L0 201Z" fill="#0fa2ff"></path></svg>