<svg id="visual" viewBox="0 0 960 300" width="960" height="300" xmlns="http://www.w3.org/2000/svg" xmlns:xlink="http://www.w3.org/1999/xlink" version="1.1"><rect x="0" y="0" width="960" height="300" fill="#00041e"></rect><path d="M0 144L20 146.8C40 149.7 80 155.3 120 159.8C160 164.3 200 167.7 240 160.2C280 152.7 320 134.3 360 130.3C400 126.3 440 136.7 480 148.2C520 159.7 560 172.3 600 170.5C640 168.7 680 152.3 720 139.8C760 127.3 800 118.7 840 114.5C880 110.3 920 110.7 940 110.8L960 111L960 301L940 301C920 301 880 301 840 301C800 301 760 301 720 301C680 301 640 301 600 301C560 301 520 301 480 301C440 301 400 301 360 301C320 301 280 301 240 301C200 301 160 301 120 301C80 301 40 301 20 301L0 301Z" fill="#001fd2"></path><path d="M0 163L20 164.3C40 165.7 80 168.3 120 169C160 169.7 200 168.3 240 173C280 177.7 320 188.3 360 196.2C400 204 440 209 480 210.5C520 212 560 210 600 205.2C640 200.3 680 192.7 720 183.8C760 175 800 165 840 165.5C880 166 920 177 940 182.5L960 188L960 301L940 301C920 301 880 301 840 301C800 301 760 301 720 301C680 301 640 301 600 301C560 301 520 301 480 301C440 301 400 301 360 301C320 301 280 301 240 301C200 301 160 301 120 301C80 301 40 301 20 301L0 301Z" fill="#0054ea"></path><path d="M0 232L20 228.7C40 225.3 80 218.7 120 216.2C160 213.7 200 215.3 240 220.8C280 226.3 320 235.7 360 232.7C400 229.7 440 214.3 480 207.2C520 200 560 201 600 203.8C640 206.7 680 211.3 720 216C760 220.7 800 225.3 840 226.7C880 228 920 226 940 225L960 224L960 301L940 301C920 301 880 301 840 301C800 301 760 301 720 301C680 301 640 301 600 301C560 301 520 301 480 301C440 301 400 301 360 301C320 301 280 301 240 301C200 301 160 301 120 301C80 301 40 301 20 301L0 301Z" fill="#007efa"></path><path d="M0 246L20 247.7C40 249.3 80 252.7 120 252.2C160 251.7 200 247.3 240 246.5C280 245.7 320 248.3 360 249C400 249.7 440 248.3 480 244.7C520 241 560 235 600 238C640 241 680 253 720 255.7C760 258.3 800 251.7 840 247.7C880 243.7 920 242.3 940 241.7L960 241L960 301L940 301C920 301 880 301 840 301C800 301 760 301 720 301C680 301 640 301 600 301C560 301 520 301 480 301C440 301 400 301 360 301C320 301 280 301 240 301C200 301 160 301 120 301C80 301 40 301 20 301L0 301Z" fill="#0fa2ff"></path></svg>